<svg xmlns="http://www.w3.org/2000/svg" width="500" height="500" fill="none" viewBox="0 0 500 500"><style>@media (prefers-color-scheme:dark){#logo{fill:#f4f5f9}}</style><path id="logo" fill="#272735" fill-rule="evenodd" d="M 252.783 0.024 C 251.925 0 251.066 0 250.208 0 C 249.349 0 248.492 0 247.634 0.024 C 111.485 1.381 1.357 111.402 0 247.423 C 0.555 225.867 8.45 205.146 22.378 188.686 C 44.159 107.902 107.981 44.141 188.843 22.38 C 208.158 17.176 228.06 14.464 248.064 14.309 C 248.779 14.285 249.494 14.285 250.208 14.285 C 250.921 14.285 251.639 14.285 252.353 14.309 C 285.265 15.166 313.339 35.713 325.206 64.571 C 327.551 70.27 329.231 76.222 330.21 82.307 C 330.891 86.582 331.234 90.905 331.235 95.235 C 331.259 112.946 325.437 130.17 314.674 144.235 C 318.758 146.717 322.689 149.445 326.445 152.4 C 338.863 135.932 345.565 115.861 345.535 95.235 C 345.535 93.734 345.492 92.233 345.428 90.733 C 371.707 106.547 393.695 128.578 409.461 154.886 C 407.873 154.818 406.285 154.77 404.696 154.77 C 384.058 154.738 363.969 161.433 347.476 173.841 C 343.639 176.716 340.029 179.884 336.681 183.316 C 327.41 192.712 320.209 203.946 315.542 216.294 L 315.542 216.317 C 311.441 227.075 309.349 238.494 309.371 250.006 C 309.371 282.473 283.247 308.933 250.887 309.519 L 250.231 309.517 C 217.369 309.517 190.653 282.826 190.653 249.996 C 190.674 261.507 188.582 272.927 184.482 283.684 L 184.482 283.709 C 191.568 297.432 202.755 308.609 216.486 315.683 L 216.51 315.683 C 226.943 321.038 238.504 323.821 250.231 323.802 C 270.43 323.777 289.905 331.331 304.805 344.968 C 308.413 348.266 311.722 351.875 314.696 355.753 C 325.461 369.818 331.283 387.041 331.259 404.751 C 331.257 409.008 330.926 413.258 330.269 417.465 C 330.11 417.54 329.953 417.616 329.793 417.691 C 315.932 424.301 301.301 429.155 286.237 432.137 C 307.318 404.418 290.487 364.273 255.94 359.876 C 254.047 359.635 252.141 359.514 250.232 359.514 C 231.08 359.531 212.26 354.514 195.657 344.966 C 183.15 337.727 172.173 328.119 163.341 316.682 C 159.993 320.114 156.383 323.283 152.546 326.156 C 158.775 334.165 165.981 341.364 173.995 347.585 C 177.751 350.542 181.682 353.27 185.767 355.753 C 205.192 367.57 227.495 373.813 250.232 373.8 C 274.059 373.8 288.95 399.593 277.037 420.227 C 271.508 429.803 261.291 435.703 250.232 435.703 C 251.888 435.703 253.537 435.682 255.182 435.639 C 253.392 435.691 251.595 435.715 249.791 435.715 C 225.966 435.782 211.001 410.031 222.858 389.363 C 228.39 379.718 238.672 373.781 249.791 373.812 C 239.916 373.819 230.074 372.643 220.477 370.312 C 193.955 392.876 201.805 435.691 234.607 447.377 C 239.481 449.115 244.617 450.002 249.791 450.002 C 275.497 450.035 300.966 445.086 324.789 435.43 C 330.81 433.01 336.704 430.284 342.448 427.265 C 378.645 408.293 408.212 378.754 427.219 342.576 C 421.399 343.973 415.463 344.826 409.487 345.123 C 393.721 371.432 371.73 393.463 345.452 409.279 C 345.516 407.771 345.557 406.261 345.557 404.754 C 345.588 384.128 338.885 364.057 326.468 347.588 L 326.312 347.379 C 334.209 341.211 341.315 334.091 347.468 326.183 C 363.958 338.585 384.041 345.275 404.673 345.243 C 406.27 345.243 407.866 345.194 409.462 345.124 C 415.439 344.826 421.375 343.973 427.193 342.576 C 468.956 332.395 498.757 295.546 499.975 252.578 C 500 251.723 500 250.866 500 250.01 L 500 250.003 C 500 249.148 500 248.291 499.975 247.435 C 498.623 111.865 389.221 2.123 253.696 0.052 Z M 336.681 316.695 C 330.931 324.158 324.248 330.853 316.797 336.617 C 307.426 327.441 296.25 320.311 283.978 315.682 L 283.954 315.682 L 283.727 315.596 C 297.373 308.515 308.488 297.379 315.543 283.719 L 315.543 283.695 C 320.901 273.275 323.689 261.723 323.67 250.004 C 323.647 229.818 331.209 210.359 344.855 195.483 C 348.157 191.879 351.77 188.572 355.652 185.602 C 369.737 174.845 386.975 169.03 404.698 169.055 C 409.023 169.056 413.341 169.398 417.613 170.075 L 417.615 170.078 C 424.302 184.073 429.193 198.857 432.171 214.079 C 404.471 192.927 364.26 209.692 359.791 244.257 C 359.546 246.163 359.42 248.083 359.418 250.004 C 359.433 269.143 354.412 287.946 344.857 304.528 C 342.404 308.76 339.673 312.824 336.681 316.695 Z M 404.696 219.054 C 421.277 219.046 434.922 232.1 435.65 248.665 C 435.653 249.112 435.655 249.559 435.655 250.006 C 435.634 273.856 409.802 288.739 389.158 276.796 C 379.932 271.459 374.097 261.753 373.711 251.101 C 373.713 250.738 373.716 250.371 373.716 250.006 C 373.724 232.903 387.594 219.046 404.696 219.054 Z M 355.651 314.409 C 362.3 303.539 367.212 291.697 370.207 279.312 C 392.821 305.841 435.674 297.941 447.342 265.092 C 449.062 260.248 449.945 255.146 449.953 250.006 C 449.985 224.321 445.032 198.875 435.369 175.077 C 432.944 169.062 430.216 163.174 427.194 157.436 C 408.278 121.431 378.901 91.999 342.932 73.015 L 342.866 72.735 C 338.089 53.145 327.212 35.58 311.803 22.573 C 392.347 44.507 455.876 108.137 477.598 188.698 C 482.807 207.993 485.521 227.877 485.676 247.862 C 485.701 248.577 485.701 249.292 485.701 250.006 C 485.701 250.72 485.701 251.433 485.676 252.148 C 484.818 285.028 464.251 313.074 435.369 324.933 C 429.662 327.275 423.704 328.952 417.614 329.932 C 413.333 330.611 409.007 330.953 404.673 330.956 C 386.957 330.981 369.726 325.17 355.643 314.421 Z M 315.518 216.315 L 315.518 216.291 C 308.432 202.566 297.245 191.39 283.514 184.316 L 283.49 184.316 C 273.057 178.961 261.496 176.177 249.769 176.197 C 229.57 176.222 210.095 168.669 195.194 155.031 C 191.586 151.733 188.277 148.123 185.303 144.246 C 174.539 130.181 168.717 112.958 168.741 95.246 C 168.742 90.99 169.074 86.739 169.731 82.534 L 170.206 82.308 C 184.067 75.697 198.699 70.844 213.762 67.861 C 192.681 95.581 209.514 135.727 244.062 140.124 C 245.954 140.364 247.86 140.485 249.767 140.485 C 268.919 140.468 287.739 145.484 304.342 155.032 C 316.849 162.271 327.826 171.878 336.658 183.316 C 340.006 179.884 343.615 176.716 347.453 173.841 C 341.224 165.833 334.018 158.634 326.004 152.413 C 322.247 149.456 318.317 146.729 314.232 144.246 C 294.807 132.429 272.504 126.186 249.767 126.199 C 225.94 126.266 210.977 100.515 222.832 79.847 C 228.365 70.201 238.647 64.264 249.767 64.296 C 248.101 64.296 246.441 64.318 244.784 64.361 C 246.586 64.309 248.394 64.283 250.208 64.283 C 274.034 64.217 288.997 89.969 277.142 110.636 C 271.609 120.282 261.328 126.218 250.208 126.187 C 260.084 126.181 269.924 127.356 279.522 129.687 C 306.045 107.124 298.196 64.31 265.395 52.621 C 260.52 50.885 255.383 49.997 250.208 49.998 C 224.502 49.964 199.034 54.913 175.211 64.569 C 169.19 66.99 163.295 69.716 157.551 72.735 C 121.355 91.707 91.788 121.246 72.782 157.424 C 78.601 156.027 84.537 155.174 90.513 154.877 C 106.279 128.568 128.27 106.536 154.55 90.72 C 154.483 92.229 154.441 93.738 154.441 95.246 C 154.41 115.872 161.114 135.943 173.531 152.412 L 173.688 152.62 C 165.791 158.789 158.685 165.908 152.532 173.817 C 136.041 161.415 115.959 154.726 95.327 154.758 C 93.73 154.758 92.134 154.806 90.536 154.877 C 84.56 155.174 78.624 156.027 72.806 157.424 C 31.044 167.606 1.244 204.454 0.025 247.423 C 0 248.279 0 249.137 0 249.993 C 0 250.849 0 251.707 0.025 252.565 C 1.379 388.136 110.782 497.879 246.31 499.947 L 247.217 499.975 C 248.075 500 248.934 500 249.793 500 C 250.651 500 251.508 500 252.366 499.975 C 388.515 498.618 498.642 388.598 500 252.575 C 499.445 274.132 491.55 294.853 477.621 311.313 C 455.841 392.098 392.018 455.857 311.157 477.619 C 291.842 482.823 271.94 485.535 251.936 485.691 C 251.222 485.714 250.506 485.714 249.793 485.714 C 249.078 485.714 248.361 485.714 247.647 485.691 C 214.736 484.834 186.661 464.286 174.794 435.429 C 172.448 429.729 170.769 423.777 169.789 417.692 C 169.109 413.416 168.766 409.093 168.765 404.764 C 168.74 387.054 174.563 369.83 185.326 355.765 C 181.242 353.282 177.311 350.555 173.554 347.598 C 161.137 364.066 154.434 384.138 154.465 404.764 C 154.465 406.263 154.507 407.765 154.572 409.265 C 128.294 393.45 106.305 371.421 90.539 345.114 C 92.127 345.182 93.715 345.229 95.304 345.229 C 115.944 345.262 136.031 338.567 152.524 326.158 C 156.362 323.283 159.971 320.115 163.319 316.683 C 172.59 307.286 179.791 296.053 184.458 283.705 L 184.458 283.682 C 188.559 272.924 190.651 261.505 190.63 249.993 C 190.63 217.526 216.753 191.066 249.113 190.48 L 249.769 190.481 C 282.632 190.481 309.347 217.173 309.347 250.003 C 309.326 238.492 311.418 227.073 315.518 216.315 Z M 157.067 426.985 C 121.099 408.001 91.722 378.568 72.806 342.563 C 69.784 336.825 67.056 330.937 64.632 324.921 C 54.968 301.124 50.015 275.677 50.047 249.993 C 50.074 215.144 87.817 193.392 117.984 210.841 C 122.453 213.425 126.447 216.756 129.793 220.687 C 132.788 208.302 137.699 196.46 144.349 185.59 L 144.356 185.577 C 130.273 174.829 113.043 169.018 95.327 169.044 C 90.993 169.046 86.667 169.388 82.386 170.067 C 76.296 171.047 70.338 172.724 64.631 175.066 C 35.749 186.925 15.181 214.971 14.324 247.851 C 14.299 248.565 14.299 249.279 14.299 249.993 C 14.299 250.708 14.299 251.423 14.324 252.137 C 14.479 272.123 17.193 292.007 22.402 311.303 C 44.125 391.862 107.653 455.493 188.198 477.426 C 172.789 464.419 161.911 446.854 157.135 427.264 Z M 82.387 329.923 C 86.66 330.601 90.978 330.942 95.304 330.944 C 113.026 330.967 130.263 325.153 144.349 314.396 C 148.23 311.425 151.843 308.119 155.144 304.515 C 168.792 289.639 176.353 270.18 176.331 249.993 C 176.312 238.275 179.099 226.723 184.458 216.302 L 184.458 216.278 C 191.512 202.619 202.628 191.483 216.273 184.403 L 216.047 184.317 L 216.022 184.317 C 203.751 179.686 192.576 172.557 183.204 163.381 C 171.869 172.169 162.342 183.065 155.145 195.47 C 145.59 212.051 140.568 230.856 140.585 249.993 C 140.57 284.832 102.849 306.59 72.685 289.159 C 70.999 288.184 69.377 287.102 67.829 285.918 C 70.807 301.14 75.699 315.924 82.386 329.92 Z M 64.351 251.334 C 65.409 275.16 91.863 288.907 111.968 276.077 C 120.877 270.392 126.273 260.559 126.284 249.993 C 126.284 249.628 126.285 249.262 126.289 248.899 C 125.425 225.064 99.084 211.104 78.874 223.768 C 69.843 229.428 64.355 239.334 64.346 249.993 C 64.346 250.442 64.347 250.888 64.351 251.334 Z"/></svg>